<svg width="16" height="16" viewBox="0 0 16 16" fill="none" xmlns="http://www.w3.org/2000/svg">
<path fill-rule="evenodd" clip-rule="evenodd" d="M4.70196 0.0479998C3.85053 0.0868569 3.26882 0.221714 2.7591 0.420571C2.23339 0.624 1.78767 0.898286 1.34196 1.34286C0.89853 1.78743 0.624244 2.23429 0.420816 2.76C0.221958 3.26857 0.0871011 3.85029 0.0482439 4.70171C0.00938679 5.55429 0.000244141 5.82743 0.000244141 8C0.000244141 10.1726 0.00938679 10.4457 0.0482439 11.2983C0.0871011 12.1497 0.221958 12.7314 0.420816 13.2411C0.624244 13.7669 0.89853 14.2126 1.3431 14.6583C1.78767 15.1017 2.23453 15.376 2.76024 15.5806C3.26882 15.7783 3.85053 15.912 4.70196 15.952C5.55567 15.9909 5.82767 16 8.00024 16C10.1728 16 10.446 15.9909 11.2985 15.952C12.15 15.9131 12.7317 15.7783 13.2414 15.5806C13.7671 15.3749 14.2128 15.1017 14.6585 14.6571C15.102 14.2126 15.3762 13.7657 15.5808 13.24C15.7785 12.7314 15.9122 12.1497 15.9522 11.2983C15.9911 10.4446 16.0002 10.1726 16.0002 8C16.0002 5.82743 15.9911 5.55429 15.9522 4.70171C15.9134 3.85029 15.7785 3.26857 15.5808 2.75886C15.3797 2.22494 15.0646 1.74131 14.6574 1.34171C14.2128 0.898286 13.766 0.624 13.2402 0.420571C12.7317 0.221714 12.15 0.0868569 11.2985 0.0479998C10.446 0.00914265 10.1728 0 8.00024 0C5.82767 0 5.55453 0.00914265 4.70196 0.0479998ZM3.89167 8C3.89167 9.08966 4.32454 10.1347 5.09505 10.9052C5.86555 11.6757 6.91058 12.1086 8.00024 12.1086C9.08991 12.1086 10.1349 11.6757 10.9054 10.9052C11.676 10.1347 12.1088 9.08966 12.1088 8C12.1088 6.91034 11.676 5.86531 10.9054 5.0948C10.1349 4.3243 9.08991 3.89143 8.00024 3.89143C6.91058 3.89143 5.86555 4.3243 5.09505 5.0948C4.32454 5.86531 3.89167 6.91034 3.89167 8ZM8.00024 10.6663C7.2931 10.6663 6.61492 10.3854 6.1149 9.88535C5.61487 9.38532 5.33396 8.70714 5.33396 8C5.33396 7.29286 5.61487 6.61468 6.1149 6.11465C6.61492 5.61463 7.2931 5.33371 8.00024 5.33371C8.70739 5.33371 9.38557 5.61463 9.88559 6.11465C10.3856 6.61468 10.6665 7.29286 10.6665 8C10.6665 8.70714 10.3856 9.38532 9.88559 9.88535C9.38557 10.3854 8.70739 10.6663 8.00024 10.6663ZM13.6002 3.44C13.6002 3.56607 13.5754 3.6909 13.5272 3.80738C13.4789 3.92385 13.4082 4.02968 13.3191 4.11882C13.2299 4.20797 13.1241 4.27868 13.0076 4.32692C12.8911 4.37517 12.7663 4.4 12.6402 4.4C12.5142 4.4 12.3893 4.37517 12.2729 4.32692C12.1564 4.27868 12.0506 4.20797 11.9614 4.11882C11.8723 4.02968 11.8016 3.92385 11.7533 3.80738C11.7051 3.6909 11.6802 3.56607 11.6802 3.44C11.6802 3.18539 11.7814 2.94121 11.9614 2.76118C12.1415 2.58114 12.3856 2.48 12.6402 2.48C12.8949 2.48 13.139 2.58114 13.3191 2.76118C13.4991 2.94121 13.6002 3.18539 13.6002 3.44Z" fill="white"/>
</svg>
